<svg xmlns="http://www.w3.org/2000/svg" width="5461.333" height="5461.333" preserveAspectRatio="xMidYMid meet" version="1.0" viewBox="0 0 4096 4096"><g fill="#000" stroke="none"><path d="M20400 36164 c-36 -7 -103 -32 -150 -55 -67 -33 -102 -59 -165 -123 -92 -93 -143 -184 -175 -310 -20 -79 -20 -127 -20 -12130 l0 -12051 -4587 4586 c-2524 2522 -4606 4599 -4628 4616 -105 80 -222 123 -333 123 -128 0 -383 -124 -519 -252 -126 -120 -175 -238 -177 -427 -1 -107 1 -121 27 -175 15 -32 48 -88 73 -125 31 -43 1816 -1836 5203 -5223 5571 -5572 5218 -5225 5382 -5279 141 -46 336 -20 519 67 74 36 138 99 5251 5213 5108 5108 5176 5177 5212 5251 154 319 36 709 -267 885 -152 88 -337 89 -525 4 -169 -77 64 152 -4776 -4689 l-4570 -4570 -5 12082 c-5 11623 -6 12086 -24 12158 -52 219 -171 334 -424 414 -96 30 -213 34 -322 10z" transform="translate(0.000000,4096.000000) scale(0.100000,-0.100000)"/><path d="M5008 20805 c-199 -55 -360 -236 -448 -504 l-30 -93 0 -4597 c0 -2968 4 -4653 10 -4756 78 -1237 462 -2373 1156 -3421 1109 -1674 2916 -2854 4844 -3163 512 -81 661 -86 3225 -101 3272 -19 13789 -5 15520 20 681 10 799 17 1135 66 1844 266 3542 1300 4705 2864 713 959 1179 2079 1339 3220 51 358 56 468 67 1340 13 1007 3 8467 -11 8610 -25 252 -73 327 -276 432 -142 73 -205 91 -324 92 -278 1 -491 -176 -642 -534 l-23 -55 -5 -4665 c-6 -5097 -2 -4718 -61 -5115 -199 -1344 -873 -2570 -1929 -3506 -954 -847 -2174 -1368 -3410 -1459 -456 -34 -7000 -49 -13285 -31 -4575 13 -5295 19 -5535 46 -695 77 -1310 257 -1930 566 -587 293 -1108 674 -1591 1165 -481 490 -829 982 -1129 1598 -325 665 -495 1292 -562 2066 -10 114 -13 1140 -14 4760 l0 4615 -27 80 c-74 225 -259 403 -474 459 -73 19 -228 20 -295 1z" transform="translate(0.000000,4096.000000) scale(0.100000,-0.100000)"/></g></svg>